<svg width="148" height="94" viewBox="0 0 148 94" fill="none" xmlns="http://www.w3.org/2000/svg">
<path d="M34.0003 93.6664C28.4448 93.6664 23.7225 91.965 19.8337 88.5622C15.9448 85.1594 14.0003 81.0275 14.0003 76.1663H0.666992V11.9997C0.666992 8.79134 1.97255 6.04481 4.58366 3.76009C7.19477 1.47537 10.3337 0.333008 14.0003 0.333008H107.334V23.6663H127.334L147.334 46.9997V76.1663H134C134 81.0275 132.056 85.1594 128.167 88.5622C124.278 91.965 119.556 93.6664 114 93.6664C108.445 93.6664 103.723 91.965 99.8337 88.5622C95.9448 85.1594 94.0003 81.0275 94.0003 76.1663H54.0003C54.0003 81.0275 52.0559 85.1594 48.167 88.5622C44.2781 91.965 39.5559 93.6664 34.0003 93.6664ZM34.0003 81.9997C35.8892 81.9997 37.4725 81.4407 38.7503 80.3226C40.0281 79.2045 40.667 77.8191 40.667 76.1663C40.667 74.5136 40.0281 73.1282 38.7503 72.0101C37.4725 70.892 35.8892 70.333 34.0003 70.333C32.1114 70.333 30.5281 70.892 29.2503 72.0101C27.9725 73.1282 27.3337 74.5136 27.3337 76.1663C27.3337 77.8191 27.9725 79.2045 29.2503 80.3226C30.5281 81.4407 32.1114 81.9997 34.0003 81.9997ZM14.0003 64.4997H19.3337C21.2225 62.7497 23.3892 61.34 25.8337 60.2705C28.2781 59.2011 31.0003 58.6663 34.0003 58.6663C37.0003 58.6663 39.7225 59.2011 42.167 60.2705C44.6114 61.34 46.7781 62.7497 48.667 64.4997H94.0003V11.9997H14.0003V64.4997ZM114 81.9997C115.889 81.9997 117.473 81.4407 118.75 80.3226C120.028 79.2045 120.667 77.8191 120.667 76.1663C120.667 74.5136 120.028 73.1282 118.75 72.0101C117.473 70.892 115.889 70.333 114 70.333C112.111 70.333 110.528 70.892 109.25 72.0101C107.973 73.1282 107.334 74.5136 107.334 76.1663C107.334 77.8191 107.973 79.2045 109.25 80.3226C110.528 81.4407 112.111 81.9997 114 81.9997ZM107.334 52.833H135.667L120.667 35.333H107.334V52.833Z" fill="white"/>
</svg>
