<svg width="160" height="140" viewBox="0 0 160 140" fill="none" xmlns="http://www.w3.org/2000/svg">
<path d="M40.0003 128.333C36.3337 128.333 33.1948 127.191 30.5837 124.906C27.9725 122.622 26.667 119.875 26.667 116.667V58.3335C26.667 55.1252 27.9725 52.3786 30.5837 50.0939C33.1948 47.8092 36.3337 46.6668 40.0003 46.6668H46.667V35.0002C46.667 26.9307 49.917 20.0522 56.417 14.3647C62.917 8.67725 70.7781 5.8335 80.0003 5.8335C89.2225 5.8335 97.0837 8.67725 103.584 14.3647C110.084 20.0522 113.334 26.9307 113.334 35.0002V46.6668H120C123.667 46.6668 126.806 47.8092 129.417 50.0939C132.028 52.3786 133.334 55.1252 133.334 58.3335V116.667C133.334 119.875 132.028 122.622 129.417 124.906C126.806 127.191 123.667 128.333 120 128.333H40.0003ZM40.0003 116.667H120V58.3335H40.0003V116.667ZM80.0003 99.1668C83.667 99.1668 86.8059 98.0245 89.417 95.7397C92.0281 93.455 93.3337 90.7085 93.3337 87.5002C93.3337 84.2918 92.0281 81.5453 89.417 79.2606C86.8059 76.9759 83.667 75.8335 80.0003 75.8335C76.3337 75.8335 73.1948 76.9759 70.5837 79.2606C67.9725 81.5453 66.667 84.2918 66.667 87.5002C66.667 90.7085 67.9725 93.455 70.5837 95.7397C73.1948 98.0245 76.3337 99.1668 80.0003 99.1668ZM60.0003 46.6668H100V35.0002C100 30.1391 98.0559 26.0071 94.167 22.6043C90.2781 19.2016 85.5559 17.5002 80.0003 17.5002C74.4448 17.5002 69.7225 19.2016 65.8337 22.6043C61.9448 26.0071 60.0003 30.1391 60.0003 35.0002V46.6668Z" fill="white"/>
</svg>
