<svg width="48" height="44" viewBox="0 0 48 44" fill="none" xmlns="http://www.w3.org/2000/svg">
<g clip-path="url(#clip0_1_674)">
<path d="M42.3883 41.1937C40.3213 42.9323 37.5317 43.9995 34.4625 43.9995H11.5375C5.16636 43.9995 0 39.4036 0 33.7334V13.3354C0 9.96529 1.8251 6.97468 4.64311 5.10352V32.0704C4.64311 37.1097 9.23432 41.1937 14.8963 41.1937H42.3883Z" fill="#26874E"/>
</g>
<rect width="44.7117" height="42.3867" rx="10" transform="matrix(-0.999996 -0.00265187 0.00202247 -0.999998 47.9141 42.5059)" fill="#4DA768"/>
<path d="M35.0815 9.54208C32.5973 9.91898 32.6285 10.8858 30.9333 10.8039C29.4178 10.7301 29.4803 10.0009 27.5742 9.6404C27.2305 9.57486 24.7697 9.10783 22.6448 10.1238C21.9808 10.4434 21.4652 10.853 20.6293 10.8039C20.02 10.7711 19.6919 10.5171 19.0591 10.2221C19.0591 10.2221 17.7155 9.59944 16.0359 9.44376C13.8642 9.24712 12.1377 10.0828 11.669 10.3123C10.8253 10.7301 10.2394 11.2135 9.65352 11.7625C8.38798 12.9506 7.76302 13.5323 7.40367 14.3844C7.27087 14.7121 7.1615 15.2201 6.95839 16.2279C6.89589 16.5229 6.73184 17.3177 6.62247 18.1616C6.41936 19.702 6.5131 20.128 6.39592 22.3239C6.25531 25.1342 6.07563 24.9621 6.16938 26.101C6.22406 26.7319 6.33343 27.5185 6.27874 28.7147C6.26312 29.0179 6.23187 29.3702 6.16938 30.0667C5.95845 32.3199 5.88815 32.6148 6.16938 32.877C6.43498 33.1228 6.67716 33.0163 8.52078 33.0737C9.83319 33.1146 10.2238 33.1802 11.544 33.172C13.083 33.1638 13.3642 33.0655 13.5595 32.8852C13.9892 32.4837 13.7939 31.8364 13.6689 31.14C13.497 30.124 13.6454 28.8131 13.8954 26.1994C14.0595 24.5197 14.2235 24.151 14.2313 22.9056C14.2391 21.8241 14.2313 20.9719 14.2313 20.9719C14.2235 20.2427 14.2157 20.1198 14.2313 19.8085C14.2782 18.6204 14.3095 18.0141 14.6766 17.6782C15.2547 17.1538 16.2859 17.0555 16.4734 17.3914C16.5827 17.588 16.2781 17.7601 16.1375 18.432C16.0515 18.8253 16.1218 18.9564 16.1375 20.0707C16.1453 20.4721 16.1375 20.6442 16.1375 20.89C16.1375 25.8634 16.4734 28.2395 16.4734 28.2395C16.4734 28.2395 16.614 29.9847 16.4656 31.1236C16.4421 31.2793 16.4109 31.435 16.364 31.6316C16.2 32.2625 16.0203 32.6066 16.2546 32.8934C16.6921 33.4342 17.8951 32.918 20.1762 32.8934C22.4417 32.8688 23.5354 33.4669 24.0979 32.8934C24.2541 32.7377 24.2932 32.5657 24.3244 31.5333C24.3557 30.4108 24.3713 29.8536 24.3244 29.108C24.2541 27.9528 24.3791 27.9937 24.4338 25.7159C24.4728 24.192 24.4572 22.8237 24.4338 21.2587C24.3947 18.5876 24.3244 17.7765 24.9962 17.3832C25.5509 17.0555 27.1758 18.7515 27.0117 19.8986C26.9024 20.6524 27.0898 19.7921 27.0117 23.7741C26.9649 25.9372 27.1367 28.1084 26.9024 30.2633C26.7696 31.5005 26.6211 32.1396 27.1289 32.5902C27.6914 33.09 28.3866 32.7459 31.1599 32.7869C33.1363 32.8115 34.3237 33.0081 34.6362 32.5001C34.7534 32.2953 34.6831 32.0823 34.6362 31.9184C34.3706 30.9925 34.6284 30.632 34.7456 28.8213C34.7846 28.2231 34.769 26.4861 34.7456 23.0121C34.7378 21.7175 34.9487 20.4312 34.8549 19.1366C34.7846 18.0878 34.6362 17.2685 35.1909 16.908C35.6205 16.6294 36.3861 16.695 36.8704 17.0063C37.2767 17.2685 37.5891 17.7765 37.4329 20.7835C37.4095 21.2423 37.4173 22.5123 37.4329 25.0441C37.4329 25.5685 37.4485 26.1584 37.8782 26.396C38.3625 26.6664 39.1281 26.3468 39.8937 26.0109C40.5655 25.7159 41.3467 25.3718 42.2451 24.5607C44.0106 22.9629 44.573 21.0785 44.7137 20.5868C45.6198 17.3832 44.7605 12.2295 40.4561 10.2221C40.4327 10.2139 40.3858 10.1894 40.3311 10.1648C38.0891 9.15699 35.7455 9.44376 35.0815 9.54208Z" fill="#257236"/>
<path d="M37.0655 26.6259C37.7374 26.6013 38.2764 26.5112 38.6201 26.4374C39.6591 26.2244 42.2136 25.528 44.0573 23.1682C44.1588 23.0371 44.2291 22.9388 44.276 22.8733C46.6977 19.5631 46.3384 14.3603 42.8933 11.3779C42.6667 11.1812 39.9247 8.92803 36.5421 9.00177C35.2454 9.02635 34.2298 9.05093 33.1908 9.59989C32.4643 9.98498 31.9878 10.4848 31.1128 10.493C30.6129 10.5012 30.3394 10.3373 29.7301 10.0997C29.1208 9.86208 27.6912 9.28035 26.3788 9.20661C25.1367 9.14106 24.082 9.48518 23.1446 9.80473C21.8322 10.239 21.5666 10.5831 20.7229 10.5995C19.7933 10.6077 19.4417 10.2062 18.4105 9.80473C15.4264 8.64945 12.3485 9.73918 12.1766 9.80473C11.411 10.0751 10.9579 10.3783 10.0908 10.9764C8.30967 12.2054 6.41917 13.8605 6.27855 16.0317C6.26293 16.253 6.27074 16.4332 6.27855 16.5234" stroke="#257236" stroke-width="2" stroke-miterlimit="10"/>
<path d="M5.2085 34C5.56785 28.1089 5.9272 22.2179 6.28655 16.335" stroke="#257236" stroke-width="2" stroke-miterlimit="10"/>
<path d="M5.2085 33.1807C8.07549 33.1807 10.9347 33.1807 13.8017 33.1807" stroke="#257236" stroke-width="2" stroke-miterlimit="10"/>
<path d="M13.9814 17.7197C13.6611 23.1438 13.3408 28.576 13.0205 34.0001" stroke="#257236" stroke-width="2" stroke-miterlimit="10"/>
<path d="M16.4658 17.8184C16.3564 23.2096 16.2471 28.6091 16.1377 34.0004" stroke="#257236" stroke-width="2" stroke-miterlimit="10"/>
<path d="M24.2231 33.1807C21.3951 33.1807 18.5672 33.1807 15.7314 33.1807" stroke="#257236" stroke-width="2" stroke-miterlimit="10"/>
<path d="M24.2778 17.5234C24.1684 23.013 24.0591 28.5108 23.9575 34.0005" stroke="#257236" stroke-width="2" stroke-miterlimit="10"/>
<path d="M26.8789 17.8184C26.9414 22.9393 27.0117 28.0602 27.0742 33.1811" stroke="#257236" stroke-width="2" stroke-miterlimit="10"/>
<path d="M34.5815 17.0977C34.6831 22.7347 34.7925 28.3636 34.894 34.0007" stroke="#257236" stroke-width="2" stroke-miterlimit="10"/>
<path d="M37.3003 17.916C37.3394 20.8411 37.3784 23.7661 37.4097 26.6912" stroke="#257236" stroke-width="2" stroke-miterlimit="10"/>
<path d="M34.5816 17.9163C34.5738 17.2526 35.0972 16.7119 35.7144 16.6299C36.4643 16.5234 37.2846 17.0969 37.3002 17.9163" stroke="#257236" stroke-width="2" stroke-miterlimit="10"/>
<path d="M23.9575 18.4318C24.1841 17.3175 25.184 16.6948 25.9808 16.9242C26.5511 17.0881 26.9964 17.6944 27.0823 18.4318" stroke="#257236" stroke-width="2" stroke-miterlimit="10"/>
<path d="M26.3711 33.082C29.16 33.082 31.9567 33.082 34.7455 33.082" stroke="#257236" stroke-width="2" stroke-miterlimit="10"/>
<path d="M13.8018 18.4331C13.9346 17.6957 14.4736 17.1303 15.1142 17.0238C15.9032 16.8927 16.7391 17.4909 16.9265 18.4331" stroke="#257236" stroke-width="2" stroke-miterlimit="10"/>
<defs>
<clipPath id="clip0_1_674">
<rect width="46" height="40.9303" fill="white" transform="translate(0 3.06934)"/>
</clipPath>
</defs>
</svg>
