<svg width="128" height="126" viewBox="0 0 128 126" fill="none" xmlns="http://www.w3.org/2000/svg">
<path d="M64.0003 125.417C55.2225 125.417 47.0003 123.958 39.3337 121.042C31.667 118.125 24.9725 114.163 19.2503 109.156C13.5281 104.149 9.00033 98.2917 5.66699 91.5833C2.33366 84.875 0.666992 77.6806 0.666992 70C0.666992 62.3195 2.33366 55.125 5.66699 48.4167C9.00033 41.7083 13.5281 35.8507 19.2503 30.8438C24.9725 25.8368 31.667 21.875 39.3337 18.9583C47.0003 16.0417 55.2225 14.5833 64.0003 14.5833V0L90.667 23.3333L64.0003 46.6667V32.0833C52.0003 32.0833 41.7781 35.7778 33.3337 43.1667C24.8892 50.5556 20.667 59.5 20.667 70C20.667 76.4167 22.3614 82.3715 25.7503 87.8646C29.1392 93.3576 33.667 97.8056 39.3337 101.208C41.1114 98.4861 43.7503 96.1771 47.2503 94.2813C50.7503 92.3854 54.7781 91.1945 59.3337 90.7083C59.0003 88.6667 58.5559 86.625 58.0003 84.5833C57.4448 82.5417 56.7781 80.6458 56.0003 78.8958C54.7781 79.7708 53.4448 80.4514 52.0003 80.9375C50.5559 81.4236 49.0003 81.6667 47.3337 81.6667C43.667 81.6667 40.5281 80.5243 37.917 78.2396C35.3059 75.9549 34.0003 73.2083 34.0003 70V64.1667C34.0003 62.5139 33.6948 60.9583 33.0837 59.5C32.4725 58.0417 31.667 56.6806 30.667 55.4167C36.2225 55.3194 41.167 55.7569 45.5003 56.7292C49.2781 57.6042 52.7225 59.0382 55.8337 61.0313C58.9448 63.0243 60.5559 66.0139 60.667 70C60.667 70.875 60.5837 71.6771 60.417 72.4063C60.2503 73.1354 59.9448 73.8889 59.5003 74.6667C58.0559 73.6945 56.6114 72.8195 55.167 72.0417C53.7225 71.2639 52.2225 70.5833 50.667 70C52.5559 71.2639 54.7225 73.2083 57.167 75.8333C59.6114 78.4583 61.8892 81.5695 64.0003 85.1667C66.2225 80.4028 69.0003 75.7118 72.3337 71.0938C75.667 66.4757 79.5559 62.2222 84.0003 58.3333C81.4448 59.8889 79.0003 61.5417 76.667 63.2917C74.3337 65.0417 72.0559 66.8889 69.8337 68.8333C69.0559 67.7639 68.4448 66.5729 68.0003 65.2604C67.5559 63.9479 67.3337 62.6111 67.3337 61.25C67.3337 57.1667 68.9448 53.7153 72.167 50.8958C75.3892 48.0764 79.3337 46.6667 84.0003 46.6667H90.667C93.2225 46.6667 95.3337 46.375 97.0003 45.7917C98.667 45.2083 100.056 44.5278 101.167 43.75C102.389 42.875 103.334 41.9028 104 40.8333C104.445 47.3472 104.056 53.1806 102.834 58.3333C101.834 62.7083 99.9448 66.7188 97.167 70.3646C94.3892 74.0104 90.0003 75.8333 84.0003 75.8333C82.3337 75.8333 80.7503 75.6389 79.2503 75.25C77.7503 74.8611 76.3892 74.3264 75.167 73.6458C74.3892 75.4931 73.5003 77.9479 72.5003 81.0104C71.5003 84.0729 70.7225 87.3542 70.167 90.8542C74.3892 91.5347 78.1114 92.7986 81.3337 94.6458C84.5559 96.4931 87.0003 98.6806 88.667 101.208C94.3337 97.8056 98.8614 93.382 102.25 87.9375C105.639 82.4931 107.334 76.5139 107.334 70H127.334C127.334 77.6806 125.667 84.875 122.334 91.5833C119 98.2917 114.473 104.149 108.75 109.156C103.028 114.163 96.3337 118.125 88.667 121.042C81.0003 123.958 72.7781 125.417 64.0003 125.417Z" fill="white"/>
</svg>
