<svg width="22" height="21" viewBox="0 0 22 21" fill="none" xmlns="http://www.w3.org/2000/svg">
<path d="M21.1794 8.88188L21.0734 8.43234H11.3028V12.5677H17.1406C16.5345 15.4458 13.722 16.9608 11.4247 16.9608C9.75313 16.9608 7.99109 16.2577 6.82484 15.1275C6.20953 14.5217 5.71974 13.8005 5.38353 13.0051C5.04731 12.2098 4.87126 11.356 4.86547 10.4925C4.86547 8.75062 5.64828 7.00828 6.78734 5.86219C7.92641 4.71609 9.64672 4.07484 11.3572 4.07484C13.3161 4.07484 14.72 5.115 15.245 5.58938L18.1836 2.66625C17.3216 1.90875 14.9534 0 11.2625 0C8.41484 0 5.68437 1.09078 3.68844 3.08016C1.71875 5.03906 0.699219 7.87172 0.699219 10.5C0.699219 13.1283 1.66391 15.8194 3.57266 17.7938C5.61219 19.8994 8.50063 21 11.4748 21C14.1809 21 16.7459 19.9397 18.5741 18.0159C20.3713 16.1222 21.3008 13.5019 21.3008 10.755C21.3008 9.59859 21.1845 8.91187 21.1794 8.88188Z" fill="white"/>
</svg>
